# xmcd
#
# Track frame offsets:
#	150
#	21049
#	43952
#	60570
#	91443
#	115018
#	136135
#	163062
#	187324
#	212298
#	234955
#	259631
#	286078
#	308280
#
# Disc length: 4413 seconds
#
# Revision: 1
# Processed by: cddbd v1.5.2PL0 Copyright (c) Steve Scherf et al.
# Submitted via: EZCDAudioConverter 7.1.4.1
#
DISCID=b4113b0e
DTITLE=Romantic Collection. Love Blues
DYEAR=2000
DGENRE=Blues
TTITLE0=U2 - One
TTITLE1=Santana - Europa (Earth's Cry Heaven's Smile)
TTITLE2=Eric Clapton - Wonderful Tonight
TTITLE3=Gary Moore - Parasienne Walkways
TTITLE4=Tony Joe White - Good in Blues
TTITLE5=Dana Gilespie - Where Bue Begins
TTITLE6=Blues Company - Silent Nite
TTITLE7=Stan Webb's Chiken Shack - Don't You Worry About a Thing
TTITLE8=Jan Akkerman - Shame on You
TTITLE9=John Campbell - Wild Streak
TTITLE10=JJ. Cale - Cloudy Day
TTITLE11=ZZ Top - Cover Your Rig
TTITLE12=Lucky Peterson - Who'been Talking
TTITLE13=London Symphonic Orchestra - One
EXTD=
EXTT0=
EXTT1=
EXTT2=
EXTT3=
EXTT4=
EXTT5=
EXTT6=
EXTT7=
EXTT8=
EXTT9=
EXTT10=
EXTT11=
EXTT12=
EXTT13=
PLAYORDER=
